<?xml version="1.0" encoding="UTF-8" standalone="no"?>
<svg
   version="1.2"
   viewBox="0 0 200 56"
   width="200"
   height="56"
   id="svg314"
   sodipodi:docname="Piedepagina-011.svg"
   inkscape:version="1.2.2 (b0a8486541, 2022-12-01)"
   xmlns:inkscape="http://www.inkscape.org/namespaces/inkscape"
   xmlns:sodipodi="http://sodipodi.sourceforge.net/DTD/sodipodi-0.dtd"
   xmlns="http://www.w3.org/2000/svg"
   xmlns:svg="http://www.w3.org/2000/svg">
  <sodipodi:namedview
     id="namedview316"
     pagecolor="#505050"
     bordercolor="#ffffff"
     borderopacity="1"
     inkscape:showpageshadow="0"
     inkscape:pageopacity="0"
     inkscape:pagecheckerboard="1"
     inkscape:deskcolor="#505050"
     showgrid="false"
     inkscape:zoom="7.035"
     inkscape:cx="100.07107"
     inkscape:cy="39.729922"
     inkscape:window-width="2512"
     inkscape:window-height="1011"
     inkscape:window-x="0"
     inkscape:window-y="0"
     inkscape:window-maximized="1"
     inkscape:current-layer="svg314" />
  <defs
     id="defs243">
    <clipPath
       clipPathUnits="userSpaceOnUse"
       id="cp1">
      <path
         d=""
         id="path2" />
    </clipPath>
    <clipPath
       clipPathUnits="userSpaceOnUse"
       id="cp2">
      <path
         d=""
         id="path5" />
    </clipPath>
    <clipPath
       clipPathUnits="userSpaceOnUse"
       id="cp3">
      <path
         d=""
         id="path8" />
    </clipPath>
    <linearGradient
       id="g1"
       x2="1"
       gradientUnits="userSpaceOnUse"
       gradientTransform="matrix(6.691,19.38,-45.611,15.747,131.801,32.033)">
      <stop
         offset="0"
         stop-color="#310073"
         id="stop11" />
      <stop
         offset="1"
         stop-color="#170036"
         id="stop13" />
    </linearGradient>
    <linearGradient
       id="g2"
       x2="1"
       gradientUnits="userSpaceOnUse"
       gradientTransform="matrix(9.978,21.116,-43.237,20.431,147.904,40.366)">
      <stop
         offset="0"
         stop-color="#3c2d7a"
         id="stop16" />
      <stop
         offset=".153"
         stop-color="#342769"
         id="stop18" />
      <stop
         offset=".512"
         stop-color="#221a46"
         id="stop20" />
      <stop
         offset=".808"
         stop-color="#181331"
         id="stop22" />
      <stop
         offset="1"
         stop-color="#141029"
         id="stop24" />
    </linearGradient>
    <linearGradient
       id="g3"
       x2="1"
       gradientUnits="userSpaceOnUse"
       gradientTransform="matrix(16.933,30.913,-62.477,34.223,139.528,31.336)">
      <stop
         offset="0"
         stop-color="#e221ab"
         stop-opacity="1"
         id="stop27" />
      <stop
         offset=".116"
         stop-color="#b8219d"
         stop-opacity="1"
         id="stop29" />
      <stop
         offset=".302"
         stop-color="#7b2188"
         stop-opacity="1"
         id="stop31" />
      <stop
         offset=".439"
         stop-color="#55217b"
         stop-opacity="1"
         id="stop33" />
      <stop
         offset=".51"
         stop-color="#462176"
         stop-opacity="1"
         id="stop35" />
      <stop
         offset="1"
         stop-color="#462176"
         stop-opacity="0"
         id="stop37" />
    </linearGradient>
    <linearGradient
       id="g4"
       x2="1"
       gradientUnits="userSpaceOnUse"
       gradientTransform="matrix(10.122,50.357,-144.283,29.002,148.13,29.986)">
      <stop
         offset="0"
         stop-color="#e221ab"
         stop-opacity="1"
         id="stop40" />
      <stop
         offset=".51"
         stop-color="#462176"
         stop-opacity="1"
         id="stop42" />
      <stop
         offset="1"
         stop-color="#462176"
         stop-opacity="0"
         id="stop44" />
    </linearGradient>
    <linearGradient
       id="g5"
       x2="1"
       gradientUnits="userSpaceOnUse"
       gradientTransform="matrix(8.285,22.698,-57.795,21.096,154.588,33.29)">
      <stop
         offset="0"
         stop-color="#ffffff"
         stop-opacity="1"
         id="stop47" />
      <stop
         offset="1"
         stop-color="#ffffff"
         stop-opacity="0"
         id="stop49" />
    </linearGradient>
    <linearGradient
       id="g6"
       x2="1"
       gradientUnits="userSpaceOnUse"
       gradientTransform="matrix(31.642,36.491,-51.694,44.824,159.255,49.351)">
      <stop
         offset="0"
         stop-color="#e221ab"
         stop-opacity="1"
         id="stop52" />
      <stop
         offset=".286"
         stop-color="#e221ab"
         stop-opacity="1"
         id="stop54" />
      <stop
         offset=".374"
         stop-color="#db21a9"
         stop-opacity=".88"
         id="stop56" />
      <stop
         offset=".501"
         stop-color="#c821a2"
         stop-opacity=".7"
         id="stop58" />
      <stop
         offset=".652"
         stop-color="#a82197"
         stop-opacity=".49"
         id="stop60" />
      <stop
         offset=".821"
         stop-color="#7c2188"
         stop-opacity=".25"
         id="stop62" />
      <stop
         offset="1"
         stop-color="#462176"
         stop-opacity="0"
         id="stop64" />
    </linearGradient>
    <linearGradient
       id="g7"
       x2="1"
       gradientUnits="userSpaceOnUse"
       gradientTransform="matrix(10.158,11.715,-16.484,14.294,157.439,48.602)">
      <stop
         offset="0"
         stop-color="#ffffff"
         stop-opacity="1"
         id="stop67" />
      <stop
         offset="1"
         stop-color="#ffffff"
         stop-opacity="0"
         id="stop69" />
    </linearGradient>
    <linearGradient
       id="g8"
       x2="1"
       gradientUnits="userSpaceOnUse"
       gradientTransform="matrix(-1.86,22.252,-71.837,-6.006,165.52,44.498)">
      <stop
         offset="0"
         stop-color="#f40076"
         stop-opacity=".1"
         id="stop72" />
      <stop
         offset=".354"
         stop-color="#e221ab"
         stop-opacity="1"
         id="stop74" />
      <stop
         offset=".996"
         stop-color="#f3a4dd"
         stop-opacity="1"
         id="stop76" />
    </linearGradient>
    <linearGradient
       id="g9"
       x2="1"
       gradientUnits="userSpaceOnUse"
       gradientTransform="matrix(0,2.057,-2.627,0,179.712,28.549)">
      <stop
         offset="0"
         stop-color="#f29dda"
         id="stop79" />
      <stop
         offset=".293"
         stop-color="#e178c8"
         id="stop81" />
      <stop
         offset="1"
         stop-color="#b8219d"
         id="stop83" />
    </linearGradient>
    <linearGradient
       id="g10"
       x2="1"
       gradientUnits="userSpaceOnUse"
       gradientTransform="matrix(0,4.638,-5.926,0,101.483,47.119)">
      <stop
         offset="0"
         stop-color="#e221ab"
         id="stop86" />
      <stop
         offset=".173"
         stop-color="#bd219e"
         id="stop88" />
      <stop
         offset=".441"
         stop-color="#8a218d"
         id="stop90" />
      <stop
         offset=".675"
         stop-color="#652181"
         id="stop92" />
      <stop
         offset=".863"
         stop-color="#4e2179"
         id="stop94" />
      <stop
         offset=".982"
         stop-color="#462176"
         id="stop96" />
    </linearGradient>
    <linearGradient
       id="g11"
       x2="1"
       gradientUnits="userSpaceOnUse"
       gradientTransform="matrix(0,3.851,-4.92,0,144.354,46.574)">
      <stop
         offset="0"
         stop-color="#f29dda"
         id="stop99" />
      <stop
         offset=".293"
         stop-color="#e178c8"
         id="stop101" />
      <stop
         offset="1"
         stop-color="#b8219d"
         id="stop103" />
    </linearGradient>
    <linearGradient
       id="g12"
       x2="1"
       gradientUnits="userSpaceOnUse"
       gradientTransform="matrix(0,6.591,-8.421,0,188.254,42.116)">
      <stop
         offset="0"
         stop-color="#e221ab"
         stop-opacity="1"
         id="stop106" />
      <stop
         offset=".286"
         stop-color="#e221ab"
         stop-opacity="1"
         id="stop108" />
      <stop
         offset=".374"
         stop-color="#db21a9"
         stop-opacity=".88"
         id="stop110" />
      <stop
         offset=".501"
         stop-color="#c821a2"
         stop-opacity=".7"
         id="stop112" />
      <stop
         offset=".652"
         stop-color="#a82197"
         stop-opacity=".49"
         id="stop114" />
      <stop
         offset=".821"
         stop-color="#7c2188"
         stop-opacity=".25"
         id="stop116" />
      <stop
         offset="1"
         stop-color="#462176"
         stop-opacity="0"
         id="stop118" />
    </linearGradient>
    <linearGradient
       id="g13"
       x2="1"
       gradientUnits="userSpaceOnUse"
       gradientTransform="matrix(127.139,0,0,48.54,-1.536,40.529)">
      <stop
         offset="0"
         stop-color="#310073"
         id="stop121" />
      <stop
         offset="1"
         stop-color="#170036"
         id="stop123" />
    </linearGradient>
    <linearGradient
       id="g14"
       x2="1"
       gradientUnits="userSpaceOnUse"
       gradientTransform="matrix(-12.029,20.838,-39.262,-22.665,60.499,24.098)">
      <stop
         offset="0"
         stop-color="#3c2d7a"
         id="stop126" />
      <stop
         offset=".153"
         stop-color="#342769"
         id="stop128" />
      <stop
         offset=".512"
         stop-color="#221a46"
         id="stop130" />
      <stop
         offset=".808"
         stop-color="#181331"
         id="stop132" />
      <stop
         offset="1"
         stop-color="#141029"
         id="stop134" />
    </linearGradient>
    <linearGradient
       id="g15"
       x2="1"
       gradientUnits="userSpaceOnUse"
       gradientTransform="matrix(-6.807,14.406,-29.498,-13.939,45.743,32.71)">
      <stop
         offset="0"
         stop-color="#3c2d7a"
         id="stop137" />
      <stop
         offset=".153"
         stop-color="#342769"
         id="stop139" />
      <stop
         offset=".512"
         stop-color="#221a46"
         id="stop141" />
      <stop
         offset=".808"
         stop-color="#181331"
         id="stop143" />
      <stop
         offset="1"
         stop-color="#141029"
         id="stop145" />
    </linearGradient>
    <linearGradient
       id="g16"
       x2="1"
       gradientUnits="userSpaceOnUse"
       gradientTransform="matrix(-5.869,18.122748,-63.579,-14.377536,51.29,41.080556)">
      <stop
         offset="0"
         stop-color="#e221ab"
         stop-opacity="1"
         id="stop148" />
      <stop
         offset=".05"
         stop-color="#ca21a3"
         stop-opacity="1"
         id="stop150" />
      <stop
         offset=".158"
         stop-color="#9b2193"
         stop-opacity="1"
         id="stop152" />
      <stop
         offset=".262"
         stop-color="#762186"
         stop-opacity="1"
         id="stop154" />
      <stop
         offset=".358"
         stop-color="#5c217d"
         stop-opacity="1"
         id="stop156" />
      <stop
         offset=".444"
         stop-color="#4c2178"
         stop-opacity="1"
         id="stop158" />
      <stop
         offset=".51"
         stop-color="#462176"
         stop-opacity="1"
         id="stop160" />
      <stop
         offset="1"
         stop-color="#462176"
         stop-opacity="0"
         id="stop162" />
    </linearGradient>
    <linearGradient
       id="g17"
       x2="1"
       gradientUnits="userSpaceOnUse"
       gradientTransform="matrix(-9.626,40.014106,-134.2,-22.540628,48.126,35.202027)">
      <stop
         offset="0"
         stop-color="#e221ab"
         stop-opacity="1"
         id="stop165" />
      <stop
         offset=".51"
         stop-color="#462176"
         stop-opacity="1"
         id="stop167" />
      <stop
         offset="1"
         stop-color="#462176"
         stop-opacity="0"
         id="stop169" />
    </linearGradient>
    <linearGradient
       id="g18"
       x2="1"
       gradientUnits="userSpaceOnUse"
       gradientTransform="matrix(-4.208,11.592442,-36.072,-9.1424285,41.942,40.447998)">
      <stop
         offset="0"
         stop-color="#ffffff"
         stop-opacity="1"
         id="stop172" />
      <stop
         offset="1"
         stop-color="#ffffff"
         stop-opacity="0"
         id="stop174" />
    </linearGradient>
    <linearGradient
       id="g19"
       x2="1"
       gradientUnits="userSpaceOnUse"
       gradientTransform="matrix(-30.092,28.999071,-49.161,-35.620459,37.287,48.326981)">
      <stop
         offset="0"
         stop-color="#e221ab"
         stop-opacity="1"
         id="stop177" />
      <stop
         offset=".293"
         stop-color="#e221ab"
         stop-opacity="1"
         id="stop179" />
      <stop
         offset=".38"
         stop-color="#db21a9"
         stop-opacity=".88"
         id="stop181" />
      <stop
         offset=".506"
         stop-color="#c821a2"
         stop-opacity=".7"
         id="stop183" />
      <stop
         offset=".655"
         stop-color="#a82197"
         stop-opacity=".49"
         id="stop185" />
      <stop
         offset=".823"
         stop-color="#7c2188"
         stop-opacity=".25"
         id="stop187" />
      <stop
         offset="1"
         stop-color="#462176"
         stop-opacity="0"
         id="stop189" />
    </linearGradient>
    <linearGradient
       id="g20"
       x2="1"
       gradientUnits="userSpaceOnUse"
       gradientTransform="matrix(-9.661,9.3095508,-15.677,-11.359307,38.653,48.316954)">
      <stop
         offset="0"
         stop-color="#ffffff"
         stop-opacity="1"
         id="stop192" />
      <stop
         offset="1"
         stop-color="#ffffff"
         stop-opacity="0"
         id="stop194" />
    </linearGradient>
    <linearGradient
       id="g21"
       x2="1"
       gradientUnits="userSpaceOnUse"
       gradientTransform="matrix(1.25,17.715805,-71.506,3.5229393,31.579,44.445565)">
      <stop
         offset="0"
         stop-color="#f40076"
         stop-opacity=".1"
         id="stop197" />
      <stop
         offset=".354"
         stop-color="#e221ab"
         stop-opacity="1"
         id="stop199" />
      <stop
         offset=".996"
         stop-color="#f3a4dd"
         stop-opacity="1"
         id="stop201" />
    </linearGradient>
    <linearGradient
       id="g22"
       x2="1"
       gradientUnits="userSpaceOnUse"
       gradientTransform="matrix(0,3.1912014,-4.879,0,16.097,34.573647)">
      <stop
         offset="0"
         stop-color="#e221ab"
         id="stop204" />
      <stop
         offset=".173"
         stop-color="#bd219e"
         id="stop206" />
      <stop
         offset=".441"
         stop-color="#8a218d"
         id="stop208" />
      <stop
         offset=".675"
         stop-color="#652181"
         id="stop210" />
      <stop
         offset=".863"
         stop-color="#4e2179"
         id="stop212" />
      <stop
         offset=".982"
         stop-color="#462176"
         id="stop214" />
    </linearGradient>
    <linearGradient
       id="g23"
       x2="1"
       gradientUnits="userSpaceOnUse"
       gradientTransform="matrix(0,2.3280144,-3.559,0,33.548,37.955368)">
      <stop
         offset="0"
         stop-color="#e221ab"
         id="stop217" />
      <stop
         offset=".173"
         stop-color="#bd219e"
         id="stop219" />
      <stop
         offset=".441"
         stop-color="#8a218d"
         id="stop221" />
      <stop
         offset=".675"
         stop-color="#652181"
         id="stop223" />
      <stop
         offset=".863"
         stop-color="#4e2179"
         id="stop225" />
      <stop
         offset=".982"
         stop-color="#462176"
         id="stop227" />
    </linearGradient>
    <linearGradient
       id="g24"
       x2="1"
       gradientUnits="userSpaceOnUse"
       gradientTransform="matrix(-1.102,3.5087339,-5.191,-1.1389389,71.925,44.759755)">
      <stop
         offset="0"
         stop-color="#f29dda"
         id="stop230" />
      <stop
         offset=".132"
         stop-color="#e785ce"
         id="stop232" />
      <stop
         offset=".404"
         stop-color="#d35ab9"
         id="stop234" />
      <stop
         offset=".649"
         stop-color="#c43baa"
         id="stop236" />
      <stop
         offset=".856"
         stop-color="#bb28a0"
         id="stop238" />
      <stop
         offset="1"
         stop-color="#b8219d"
         id="stop240" />
    </linearGradient>
  </defs>
  <style
     id="style245">
		.s0 { fill: #ffffff } 
		.s1 { fill: url(#g1) } 
		.s2 { fill: url(#g2) } 
		.s3 { fill: url(#g3) } 
		.s4 { opacity: .78;fill: url(#g4) } 
		.s5 { opacity: .68;fill: url(#g5) } 
		.s6 { opacity: .92;fill: url(#g6) } 
		.s7 { opacity: .78;fill: url(#g7) } 
		.s8 { opacity: .63;fill: none;stroke: url(#g8);stroke-miterlimit:10;stroke-width: .4 } 
		.s9 { opacity: .92;fill: url(#g9) } 
		.s10 { opacity: .92;fill: url(#g10) } 
		.s11 { opacity: .92;fill: url(#g11) } 
		.s12 { opacity: .92;fill: url(#g12) } 
		.s13 { opacity: .12;fill: url(#g13) } 
		.s14 { fill: url(#g14) } 
		.s15 { fill: url(#g15) } 
		.s16 { fill: url(#g16) } 
		.s17 { opacity: .78;fill: url(#g17) } 
		.s18 { opacity: .4;fill: url(#g18) } 
		.s19 { opacity: .92;fill: url(#g19) } 
		.s20 { opacity: .78;fill: url(#g20) } 
		.s21 { opacity: .63;fill: none;stroke: url(#g21);stroke-miterlimit:10;stroke-width: .4 } 
		.s22 { opacity: .92;fill: url(#g22) } 
		.s23 { opacity: .92;fill: url(#g23) } 
		.s24 { opacity: .92;fill: url(#g24) } 
	</style>
  <g
     id="Clip-Path: g2315"
     clip-path="url(#cp1)"
     transform="matrix(1,0,0,0.83561178,0,11.844171)">
    <g
       id="g2315" />
  </g>
  <g
     id="g11028"
     transform="matrix(1,0,0,0.83561178,0,11.844171)" />
  <g
     id="Clip-Path: g2457"
     clip-path="url(#cp2)"
     transform="matrix(1,0,0,0.83561178,0,11.844171)" />
  <path
     id="path2136"
     class="s13"
     d="m 7.43,16.42 c 7.29,0.62 14.29,3.13 19.71,6.99 4.4,3.14 7.87,7.18 13.02,9.54 12.04,5.54 25.89,-0.11 38.64,0.25 34.06,0.96 46.8,23.53 46.8,23.53 L 0.96,64.8 c 0,0 -1.01,-3.05 -2.5,-7.56 V 16.53 c 2.97,-0.32 6.01,-0.36 8.97,-0.11 z"
     style="fill:url(#g13)"
     transform="matrix(1,0,0,0.83561178,0,11.844171)" />
  <g
     id="Clip-Path: g2487"
     clip-path="url(#cp3)"
     transform="matrix(1,0,0,0.83561178,0,11.844171)" />
  <g
     id="g2313"
     transform="matrix(1,0,0,0.83561178,0,11.844171)">
    <path
       id="path2285"
       class="s0"
       d="m 10.98,47.02 c -0.23,0 -0.43,-0.15 -0.43,-0.34 0,-0.19 0.2,-0.34 0.43,-0.34 0.24,0 0.44,0.15 0.44,0.34 0,0.19 -0.2,0.34 -0.44,0.34 z" />
    <path
       id="path2287"
       class="s0"
       d="m 12.92,46.34 c 0.24,0 0.44,0.15 0.44,0.34 0,0.19 -0.2,0.34 -0.44,0.34 -0.24,0 -0.43,-0.15 -0.43,-0.34 0,-0.19 0.19,-0.34 0.43,-0.34 z" />
    <path
       id="path2289"
       class="s0"
       d="m 10.98,45.29 c -0.23,0 -0.43,-0.15 -0.43,-0.33 0,-0.19 0.2,-0.34 0.43,-0.34 0.24,0 0.44,0.15 0.44,0.34 0,0.18 -0.2,0.33 -0.44,0.33 z" />
    <path
       id="path2291"
       class="s0"
       d="m 12.92,45.29 c -0.24,0 -0.43,-0.15 -0.43,-0.33 0,-0.19 0.19,-0.34 0.43,-0.34 0.24,0 0.44,0.15 0.44,0.34 0,0.18 -0.2,0.33 -0.44,0.33 z" />
    <path
       id="path2293"
       class="s0"
       d="m 10.98,43.57 c -0.23,0 -0.43,-0.15 -0.43,-0.34 0,-0.18 0.2,-0.34 0.43,-0.34 0.24,0 0.44,0.16 0.44,0.34 0,0.19 -0.2,0.34 -0.44,0.34 z" />
    <path
       id="path2295"
       class="s0"
       d="m 12.92,43.57 c -0.24,0 -0.43,-0.15 -0.43,-0.34 0,-0.18 0.19,-0.34 0.43,-0.34 0.24,0 0.44,0.16 0.44,0.34 0,0.19 -0.2,0.34 -0.44,0.34 z" />
    <path
       id="path2297"
       class="s0"
       d="m 10.98,41.85 c -0.23,0 -0.43,-0.15 -0.43,-0.34 0,-0.19 0.2,-0.34 0.43,-0.34 0.24,0 0.44,0.15 0.44,0.34 0,0.19 -0.2,0.34 -0.44,0.34 z" />
    <path
       id="path2299"
       class="s0"
       d="m 12.92,41.85 c -0.24,0 -0.43,-0.15 -0.43,-0.34 0,-0.19 0.19,-0.34 0.43,-0.34 0.24,0 0.44,0.15 0.44,0.34 0,0.19 -0.2,0.34 -0.44,0.34 z" />
    <path
       id="path2301"
       class="s0"
       d="m 10.98,40.12 c -0.23,0 -0.43,-0.15 -0.43,-0.33 0,-0.19 0.2,-0.34 0.43,-0.34 0.24,0 0.44,0.15 0.44,0.34 0,0.18 -0.2,0.33 -0.44,0.33 z" />
    <path
       id="path2303"
       class="s0"
       d="m 12.92,40.12 c -0.24,0 -0.43,-0.15 -0.43,-0.33 0,-0.19 0.19,-0.34 0.43,-0.34 0.24,0 0.44,0.15 0.44,0.34 0,0.18 -0.2,0.33 -0.44,0.33 z" />
    <path
       id="path2305"
       class="s0"
       d="m 10.98,38.4 c -0.23,0 -0.43,-0.15 -0.43,-0.34 0,-0.18 0.2,-0.34 0.43,-0.34 0.24,0 0.44,0.15 0.44,0.34 0,0.19 -0.2,0.34 -0.44,0.34 z" />
    <path
       id="path2307"
       class="s0"
       d="m 12.92,38.4 c -0.24,0 -0.43,-0.15 -0.43,-0.34 0,-0.18 0.19,-0.34 0.43,-0.34 0.24,0 0.44,0.15 0.44,0.34 0,0.19 -0.2,0.34 -0.44,0.34 z" />
    <path
       id="path2309"
       class="s0"
       d="m 10.98,36.68 c -0.23,0 -0.43,-0.16 -0.43,-0.34 0,-0.19 0.2,-0.34 0.43,-0.34 0.24,0 0.44,0.15 0.44,0.34 0,0.18 -0.2,0.34 -0.44,0.34 z" />
    <path
       id="path2311"
       class="s0"
       d="m 12.92,36.68 c -0.24,0 -0.43,-0.16 -0.43,-0.34 0,-0.19 0.19,-0.34 0.43,-0.34 0.24,0 0.44,0.15 0.44,0.34 0,0.18 -0.2,0.34 -0.44,0.34 z" />
  </g>
  <g
     id="g2457"
     transform="matrix(1,0,0,0.83561178,0,11.844171)">
    <g
       id="g2455">
      <g
         id="g2403">
        <g
           id="g2337">
          <path
             id="path2322"
             class="s1"
             d="m 195.7,21.19 c -7.67,0.64 -15.03,3.28 -20.72,7.34 -4.64,3.31 -8.28,7.55 -13.69,10.03 -12.67,5.83 -27.23,-0.11 -40.63,0.26 C 84.84,39.84 86.25,56.53 64.72,58.31 51.54,59.4 202.5,72.05 202.5,72.05 c 0,0 1.06,-3.21 2.63,-7.95 V 21.29 c -3.12,-0.33 -6.31,-0.37 -9.43,-0.1 z"
             style="fill:url(#g1)" />
          <path
             id="path2335"
             class="s2"
             d="m 202.64,25.68 c -4.41,-0.64 -9.26,-0.22 -13.48,0.96 -6.44,1.81 -11.67,5.13 -16.45,8.56 -4.78,3.44 -9.32,7.09 -14.98,9.84 -6.78,3.3 -15.05,5.18 -23.4,5.33 -5.25,0.09 -10.55,-0.48 -15.75,0.07 -8.19,0.88 -15.55,4.74 -18.84,9.89 v 8.63 h 102.9 z"
             style="fill:url(#g2)" />
        </g>
        <path
           id="path2352"
           class="s3"
           d="m 188.67,37.38 c -5.29,2.86 -13.36,3.38 -20.42,3.65 -7.06,0.27 -14.49,0.39 -20.56,2.6 -3.6,1.31 -6.73,3.37 -9.98,5.11 -7.47,4 -16.49,3.29 -25.06,3.23 -6.98,-0.05 -13.48,1.14 -18.37,5.26 -3.23,2.72 -5.62,6.15 -7.08,9.67 q -0.14,0.32 -0.25,0.64 H 205.49 V 19.56 c -9.78,-0.17 -8.13,13.12 -16.82,17.82 z"
           style="fill:url(#g3)" />
        <path
           id="path2361"
           class="s4"
           d="m 205.11,33.44 c -0.31,-0.21 -0.54,-1.58 -1.21,-1.47 -3.34,0.57 -6.29,2.9 -8.16,5.58 -1.31,1.87 -4.09,7.88 -12.96,7.46 -3.59,-0.17 -18.87,-3.83 -22.32,-4.28 -10.47,-1.36 -19.19,0.44 -26.2,5.53 -5.28,3.84 -10.29,7.75 -15.53,11.57 -5.2,3.81 -11.84,7.12 -19.23,7.14 v 3.71 h 105.11 q 0.07,-3 0.13,-6.01 0.13,-6.46 0.26,-12.93 0.12,-6.13 0.24,-12.26 0.04,-1.75 0.07,-3.5 0.01,-0.41 -0.2,-0.54 z"
           style="fill:url(#g4)" />
        <path
           id="path2368"
           class="s5"
           d="M 215.63,69.14 V 38.15 q -0.15,-0.08 -0.34,-0.06 c -3.78,0.57 -7.12,2.9 -9.24,5.58 -1.48,1.87 -4.63,7.88 -14.66,7.46 -4.06,-0.17 -21.35,-3.83 -25.25,-4.28 -11.85,-1.36 -21.72,0.44 -29.65,5.53 -5.97,3.84 -11.64,7.75 -17.56,11.57 -3.1,2 -6.65,3.87 -10.53,5.19 z"
           style="fill:url(#g5)" />
        <path
           id="path2385"
           class="s6"
           d="m 205.13,46.77 c -2.55,2.6 -7.27,4.05 -11.68,4.26 -4.36,0.22 -8.69,-0.44 -13.03,-0.82 -9.31,-0.83 -19.3,-0.28 -27.15,3.33 -8.36,3.85 -13.68,10.87 -23.13,13.17 -0.72,0.18 -1.54,0.31 -2.26,0.54 q -0.49,0.15 -0.89,0.38 c 0.27,0.19 0.27,0.09 0.55,0.17 1.45,0.38 4.19,0 5.72,0 h 71.87 c 0,0 0,-21.03 0,-21.03 z"
           style="fill:url(#g6)" />
        <path
           id="path2392"
           class="s7"
           d="m 205.13,49.36 c -2.68,1.93 -6.67,3.02 -10.44,3.2 -4.36,0.22 -8.7,-0.44 -13.03,-0.82 -9.31,-0.83 -19.3,-0.28 -27.15,3.33 -8.37,3.85 -13.69,10.87 -23.13,13.17 -0.72,0.18 -1.54,0.31 -2.26,0.54 q -0.49,0.15 -0.89,0.37 c 0.26,0.2 0.26,0.1 0.55,0.17 1.45,0.39 4.18,0 5.72,0 h 70.63 z"
           style="fill:url(#g7)" />
        <path
           id="path2401"
           class="s8"
           d="m 205.23,46.62 c -2.85,3.26 -8.67,4.87 -13.93,4.86 -4.8,-0.01 -9.49,-0.98 -14.21,-1.66 -10.12,-1.44 -21.12,-1.39 -30.06,2.2 -8.46,3.41 -14.52,9.73 -23.16,12.54"
           style="stroke:url(#g8)" />
      </g>
      <path
         id="circle2412"
         fill-rule="evenodd"
         class="s9"
         d="m 179.71,31.65 c -1.02,0 -1.84,-0.64 -1.84,-1.44 0,-0.8 0.82,-1.44 1.84,-1.44 1.02,0 1.85,0.64 1.85,1.44 0,0.8 -0.83,1.44 -1.85,1.44 z"
         style="fill:url(#g9)" />
      <path
         id="circle2427"
         fill-rule="evenodd"
         class="s10"
         d="m 101.48,50.01 c -1.02,0 -1.84,-0.65 -1.84,-1.45 0,-0.8 0.82,-1.44 1.84,-1.44 1.02,0 1.85,0.64 1.85,1.44 0,0.8 -0.83,1.45 -1.85,1.45 z"
         style="fill:url(#g10)" />
      <path
         id="circle2436"
         fill-rule="evenodd"
         class="s11"
         d="m 144.35,49.72 c -1.02,0 -1.84,-0.65 -1.84,-1.45 0,-0.8 0.82,-1.44 1.84,-1.44 1.02,0 1.85,0.64 1.85,1.44 0,0.8 -0.83,1.45 -1.85,1.45 z"
         style="fill:url(#g11)" />
      <path
         id="circle2453"
         fill-rule="evenodd"
         class="s12"
         d="m 188.25,46.22 c -1.45,0 -2.62,-0.92 -2.62,-2.05 0,-1.14 1.17,-2.05 2.62,-2.05 1.45,0 2.63,0.91 2.63,2.05 0,1.13 -1.18,2.05 -2.63,2.05 z"
         style="fill:url(#g12)" />
    </g>
  </g>
  <g
     id="g2487"
     transform="matrix(1,0,0,0.83561178,0,11.844171)">
    <path
       id="path2459"
       class="s0"
       d="m 188.72,26.8 c -0.26,0 -0.47,0.16 -0.47,0.37 0,0.2 0.21,0.36 0.47,0.36 0.26,0 0.47,-0.16 0.47,-0.36 0,-0.21 -0.21,-0.37 -0.47,-0.37 z" />
    <path
       id="path2461"
       class="s0"
       d="m 190.82,27.53 c 0.26,0 0.47,-0.16 0.47,-0.36 0,-0.21 -0.21,-0.37 -0.47,-0.37 -0.26,0 -0.47,0.16 -0.47,0.37 0,0.2 0.21,0.36 0.47,0.36 z" />
    <path
       id="path2463"
       class="s0"
       d="m 188.72,28.66 c -0.26,0 -0.47,0.17 -0.47,0.37 0,0.2 0.21,0.37 0.47,0.37 0.26,0 0.47,-0.17 0.47,-0.37 0,-0.2 -0.21,-0.37 -0.47,-0.37 z" />
    <path
       id="path2465"
       class="s0"
       d="m 190.82,28.66 c -0.26,0 -0.47,0.17 -0.47,0.37 0,0.2 0.21,0.37 0.47,0.37 0.26,0 0.47,-0.17 0.47,-0.37 0,-0.2 -0.21,-0.37 -0.47,-0.37 z" />
    <path
       id="path2467"
       class="s0"
       d="m 188.72,30.53 c -0.26,0 -0.47,0.16 -0.47,0.37 0,0.2 0.21,0.36 0.47,0.36 0.26,0 0.47,-0.16 0.47,-0.36 0,-0.21 -0.21,-0.37 -0.47,-0.37 z" />
    <path
       id="path2469"
       class="s0"
       d="m 190.82,30.53 c -0.26,0 -0.47,0.16 -0.47,0.37 0,0.2 0.21,0.36 0.47,0.36 0.26,0 0.47,-0.16 0.47,-0.36 0,-0.21 -0.21,-0.37 -0.47,-0.37 z" />
    <path
       id="path2471"
       class="s0"
       d="m 188.72,32.4 c -0.26,0 -0.47,0.16 -0.47,0.36 0,0.2 0.21,0.37 0.47,0.37 0.26,0 0.47,-0.17 0.47,-0.37 0,-0.2 -0.21,-0.36 -0.47,-0.36 z" />
    <path
       id="path2473"
       class="s0"
       d="m 190.82,32.4 c -0.26,0 -0.47,0.16 -0.47,0.36 0,0.2 0.21,0.37 0.47,0.37 0.26,0 0.47,-0.17 0.47,-0.37 0,-0.2 -0.21,-0.36 -0.47,-0.36 z" />
    <path
       id="path2475"
       class="s0"
       d="m 188.72,34.26 c -0.26,0 -0.47,0.17 -0.47,0.37 0,0.2 0.21,0.36 0.47,0.36 0.26,0 0.47,-0.16 0.47,-0.36 0,-0.2 -0.21,-0.37 -0.47,-0.37 z" />
    <path
       id="path2477"
       class="s0"
       d="m 190.82,34.26 c -0.26,0 -0.47,0.17 -0.47,0.37 0,0.2 0.21,0.36 0.47,0.36 0.26,0 0.47,-0.16 0.47,-0.36 0,-0.2 -0.21,-0.37 -0.47,-0.37 z" />
    <path
       id="path2479"
       class="s0"
       d="m 188.72,36.13 c -0.26,0 -0.47,0.16 -0.47,0.36 0,0.2 0.21,0.37 0.47,0.37 0.26,0 0.47,-0.17 0.47,-0.37 0,-0.2 -0.21,-0.36 -0.47,-0.36 z" />
    <path
       id="path2481"
       class="s0"
       d="m 190.82,36.13 c -0.26,0 -0.47,0.16 -0.47,0.36 0,0.2 0.21,0.37 0.47,0.37 0.26,0 0.47,-0.17 0.47,-0.37 0,-0.2 -0.21,-0.36 -0.47,-0.36 z" />
    <path
       id="path2483"
       class="s0"
       d="m 188.72,37.99 c -0.26,0 -0.47,0.17 -0.47,0.37 0,0.2 0.21,0.36 0.47,0.36 0.26,0 0.47,-0.16 0.47,-0.36 0,-0.2 -0.21,-0.37 -0.47,-0.37 z" />
    <path
       id="path2485"
       class="s0"
       d="m 190.82,37.99 c -0.26,0 -0.47,0.17 -0.47,0.37 0,0.2 0.21,0.36 0.47,0.36 0.26,0 0.47,-0.16 0.47,-0.36 0,-0.2 -0.21,-0.37 -0.47,-0.37 z" />
  </g>
  <path
     id="path2162"
     class="s15"
     d="m -6.34,18.81 c 4.19,-0.61 8.81,-0.21 12.81,0.92 6.13,1.71 11.11,4.87 15.65,8.14 4.55,3.26 8.86,6.73 14.25,9.35 6.45,3.14 14.31,4.93 22.25,5.07 5,0.09 10.04,-0.46 14.98,0.07 7.79,0.83 14.79,4.5 17.92,9.4 v 8.21 H -6.34 Z"
     style="fill:url(#g15)"
     transform="matrix(1,0,0,0.83561178,0,11.844171)" />
  <path
     id="path2149"
     class="s14"
     d="m 19.99,20.15 c 5.65,4.58 8.92,10.91 16.08,14.14 5.12,2.32 11.42,2.65 17.42,2.45 6,-0.19 12.38,-0.47 18.37,-0.25 32.17,1.16 40.08,25.54 40.08,25.54 H -6.34 V 12.84 c 9.66,-0.62 19.77,2 26.33,7.31 z"
     style="fill:url(#g14)"
     transform="matrix(1,0,0,0.83561178,0,11.844171)" />
  <path
     id="path2183"
     class="s16"
     d="m 1.6,31.731731 c 2.58,2.406562 4.55,5.08052 8.56,6.902154 5.02,2.28122 12.2,2.757519 18.91,2.974778 6.72,0.208903 13.78,0.309176 19.56,2.063961 3.42,1.044514 6.4,2.682314 9.49,4.061073 8.83,3.952444 18.97,2.23944 28.82,2.665602 14.65,0.635064 19.46,12.275137 19.46,12.275137 H -6.34 V 27.277921 c 3.4,0.927529 6.04,2.682313 7.94,4.45381 z"
     style="fill:url(#g16);stroke-width:0.914118" />
  <path
     id="path2192"
     class="s17"
     d="m -3.75,35.400067 c 0.28,-0.167122 0.5,-1.261774 1.11,-1.169856 3.07,0.45123 5.78,2.306288 7.5,4.437098 1.2,1.487389 3.76,6.258732 11.91,5.924488 3.29,-0.133698 17.33,-3.041627 20.5,-3.40094 9.62,-1.077939 17.64,0.350957 24.08,4.395318 4.85,3.049983 9.45,6.158458 14.26,9.191729 4.79,3.024915 10.88,5.665448 17.67,5.673804 v 2.94971 H -3.3 q -0.05,-2.381494 -0.11,-4.771343 -0.12,-5.139013 -0.24,-10.278025 -0.11,-4.871617 -0.22,-9.743234 -0.04,-1.387115 -0.07,-2.782587 0,-0.325889 0.19,-0.426162 z"
     style="fill:url(#g17);stroke-width:0.914118" />
  <path
     id="path2199"
     class="s18"
     d="M -6.34,64.053195 V 39.427716 q 0.13,-0.06685 0.28,-0.05014 c 3.12,0.451231 5.87,2.306289 7.62,4.437099 1.21,1.487389 3.81,6.258732 12.08,5.924487 3.34,-0.133698 17.59,-3.041627 20.81,-3.40094 9.76,-1.077939 17.9,0.350957 24.43,4.395318 4.92,3.049983 9.59,6.158459 14.47,9.19173 2.56,1.596018 5.48,3.075051 8.68,4.127922 0,0 -88.37,0 -88.37,0 z"
     style="fill:url(#g18);stroke-width:0.914118" />
  <path
     id="path2216"
     class="s19"
     d="m -6.34,46.279732 c 2.43,2.055605 6.91,3.217106 11.1,3.384228 4.15,0.167123 8.27,-0.350957 12.4,-0.660133 8.85,-0.651777 18.35,-0.217259 25.82,2.657245 7.95,3.058339 13.01,8.63187 22,10.46186 0.68,0.142054 1.46,0.242327 2.14,0.426162 q 0.47,0.116985 0.85,0.30082 c -0.25,0.15041 -0.25,0.07521 -0.52,0.133698 -1.38,0.309176 -3.98,0 -5.44,0 H -6.34 Z"
     style="fill:url(#g19);stroke-width:0.914118" />
  <path
     id="path2223"
     class="s20"
     d="m -6.7,48.920266 c 2.54,1.537525 6.34,2.398205 9.93,2.548616 4.14,0.167122 8.27,-0.359313 12.39,-0.660134 8.85,-0.651777 18.36,-0.225615 25.82,2.64889 7.96,3.058339 13.01,8.640225 22,10.470215 0.68,0.133698 1.46,0.242328 2.15,0.426162 q 0.46,0.116986 0.85,0.292464 c -0.26,0.158767 -0.26,0.0752 -0.53,0.142054 -1.38,0.300821 -3.98,0 -5.44,0 H -6.7 Z"
     style="fill:url(#g20);stroke-width:0.914118" />
  <path
     id="path2232"
     class="s21"
     d="m -6.7,45.678092 c 2.66,2.623821 8.22,3.9608 13.29,4.019293 4.62,0.05014 9.16,-0.66849 13.72,-1.153145 11.26,-1.178212 18.9,-1.370403 28.89,2.105742 8.06,2.7993 13.74,7.888175 22,10.219532"
     style="stroke:url(#g21)" />
  <path
     id="circle2249"
     fill-rule="evenodd"
     class="s22"
     d="m 16.1,34.572811 c -0.97,0 -1.76,0.509724 -1.76,1.144789 0,0.635065 0.79,1.153144 1.76,1.153144 0.97,0 1.75,-0.518079 1.75,-1.153144 0,-0.635065 -0.78,-1.144789 -1.75,-1.144789 z"
     style="fill:url(#g22);stroke-width:0.914118" />
  <path
     id="circle2264"
     fill-rule="evenodd"
     class="s23"
     d="m 33.55,37.957039 c -0.61,0 -1.11,0.325889 -1.11,0.726982 0,0.401094 0.5,0.718627 1.11,0.718627 0.61,0 1.11,-0.317533 1.11,-0.718627 0,-0.401093 -0.5,-0.726982 -1.11,-0.726982 z"
     style="fill:url(#g23);stroke-width:0.914118" />
  <path
     id="circle2279"
     fill-rule="evenodd"
     class="s24"
     d="m 71.31,45.561106 c -0.97,0 -1.75,0.51808 -1.75,1.153145 0,0.635065 0.78,1.144788 1.75,1.144788 0.97,0 1.76,-0.509723 1.76,-1.144788 0,-0.635065 -0.79,-1.153145 -1.76,-1.153145 z"
     style="fill:url(#g24);stroke-width:0.914118" />
</svg>
